<?xml version="1.0" encoding="utf-8"?>
<!-- Generator: Adobe Illustrator 16.0.0, SVG Export Plug-In . SVG Version: 6.00 Build 0)  -->
<!DOCTYPE svg PUBLIC "-//W3C//DTD SVG 1.1//EN" "http://www.w3.org/Graphics/SVG/1.1/DTD/svg11.dtd">
<svg version="1.1" id="Layer_1" xmlns="http://www.w3.org/2000/svg" xmlns:xlink="http://www.w3.org/1999/xlink" x="0px" y="0px"
    width="32px" height="32.004px" viewBox="0 0 32 32.004" enable-background="new 0 0 32 32.004" xml:space="preserve">
<style>
    path { mix-blend-mode: multiply; }
</style>
<g>
    <path fill="#A3BA00" d="M0,9.75C0,4.916,3.915,1,8.748,1C13.58,1,17.5,4.916,17.5,9.75c0,4.83-3.92,8.75-8.752,8.75
        C3.915,18.5,0,14.58,0,9.75z"/>
</g>
<g>
    <path fill="#BF2E2C" d="M14.5,9.75C14.5,4.916,18.42,1,23.252,1S32,4.916,32,9.75c0,4.83-3.916,8.75-8.748,8.75
        S14.5,14.58,14.5,9.75z"/>
</g>
<g>
    <path fill="#4762B9" d="M7.25,22.25c0-4.829,3.916-8.75,8.75-8.75s8.75,3.921,8.75,8.75c0,4.834-3.916,8.75-8.75,8.75
        S7.25,27.084,7.25,22.25z"/>
</g>
</svg>
